<?xml version="1.0" encoding="UTF-8"?>
<svg id="Camada_1" data-name="Camada 1" xmlns="http://www.w3.org/2000/svg" viewBox="0 0 1007 1018.79">
  <defs>
    <style>
      .cls-1 {
        fill: #1c6967;
      }

      .cls-1, .cls-2, .cls-3 {
        stroke-width: 0px;
      }

      .cls-2 {
        fill: #21b0ae;
        fill-rule: evenodd;
      }

      .cls-3 {
        fill: #fff;
      }
    </style>
  </defs>
  <path class="cls-3" d="M971.9,532.87c.38-7.82.58-15.65.58-23.47s-.2-15.65-.58-23.45c8.62-3.09,16.37-8.39,22.42-15.51,10.11-11.85,14.49-27.45,11.99-42.82-19.09-118.13-79.83-226.35-171.03-304.73C743.07,43.64,625.24,0,503.51,0s-239.56,43.64-331.78,122.88C80.51,201.25,19.77,309.48.69,427.6c-2.5,15.38,1.88,30.99,11.95,42.8,6.08,7.15,13.85,12.45,22.46,15.54-.38,7.82-.58,15.65-.58,23.46s.2,15.66.58,23.47c-8.62,3.09-16.38,8.39-22.46,15.54-10.08,11.85-14.44,27.44-11.95,42.8,19.09,118.13,79.84,226.35,171.03,304.71,92.21,79.24,210.04,122.88,331.79,122.88s239.57-43.64,331.78-122.88c91.2-78.36,151.94-186.57,171.03-304.71,2.48-15.36-1.88-30.95-11.95-42.8-6.08-7.15-13.85-12.45-22.46-15.54Z"/>
  <g>
    <path class="cls-1" d="M954,563.39h-16.04c-.82,0-1.63.05-2.43.15,2.21-17.85,3.31-35.91,3.31-54.14s-1.11-36.29-3.31-54.13c.8.1,1.61.15,2.43.15h16.04c5.68,0,11.07-2.49,14.74-6.81,3.68-4.32,5.28-10.04,4.37-15.64-17.82-110.31-74.56-211.37-159.75-284.58-86.12-74-196.17-114.76-309.87-114.76s-223.74,40.76-309.86,114.76C108.45,221.59,51.71,322.66,33.89,432.97c-.91,5.6.69,11.32,4.37,15.64,3.68,4.32,9.07,6.81,14.75,6.81h16.04c.82,0,1.63-.05,2.43-.15-2.21,17.84-3.31,35.9-3.31,54.13s1.11,36.29,3.31,54.14c-.8-.1-1.61-.15-2.43-.15h-16.04c-5.68,0-11.07,2.49-14.75,6.81-3.68,4.32-5.28,10.04-4.37,15.64,17.82,110.3,74.56,211.36,159.75,284.57,86.12,74,196.17,114.76,309.86,114.76s223.74-40.76,309.87-114.76c85.19-73.2,141.93-174.26,159.75-284.57.91-5.6-.69-11.32-4.37-15.64-3.68-4.32-9.07-6.81-14.75-6.81Z"/>
    <path class="cls-2" d="M53,436.05C88.1,218.86,276.42,53,503.5,53s415.41,165.87,450.5,383.06h-16.04c-34.93-208.41-216.13-367.24-434.46-367.24S103.97,227.64,69.04,436.05h-16.04ZM854.16,657.14c3.92-9.3,7.48-18.79,10.67-28.45h-100.4c-3.48-9.21-10.83-16.15-20.34-21.83.78,14.9-5.37,34.42-14.12,49.52,39.91.23,85.02.54,124.19.76M454.79,886.72c15.95,2.04,32.21,3.09,48.72,3.09s32.57-1.04,48.43-3.06l32.33-55.11h-34.65c16.31-13.25,32.61-26.5,48.92-39.74,25.94-21.08,26.15-23.71,43.07-52.54l29.97-51.04c3.15-5.37,6.3-10.73,9.45-16.09,6.66-15.4,11.67-32.4,9.83-53.12-2.18-24.65-9.07-31.04-22.35-50.46-6.11-8.94-12.16-17.78-19.12-27.95-2.72,15.31-20.8,32.37-34.81,41.28,11.29-47.22,17.83-86.85,12.05-106.95-7.28-13.8-14.56-27.61-21.84-41.42,13.05-24.35,26.11-48.7,39.16-73.05-3.64-21.47-10.48-45.94-22.03-72.3-11.8-3.77-24.92-7.91-36.71-11.68-34.09,73.73-50.03,96.66-105.44,160.79,8.03,5.52,12.48,8.57,20.5,14.1,1.61,9.69,0,0,1.84,11.23-10.55,6.64-24.35,14.46-38.92,19.1v46.7c-18.73-29.46-30.97-41.45-64.01-49.71-31.92,42.47-53.14,73.95-78.56,109.97-3.62,5.12-7.32,10.34-11.15,15.7-11.56,16.16-12.32,18.67-5.11,26.95,2.75,3.17,6.76,5.57,10.45,8.61,27.97,23.01,66.23,54.39,73.44,60.25.4.33-45.79-.04-45.52.41,14.12,24.06,28.25,48.13,42.38,72.19,21.28,36.83,46.44,75.6,69.69,113.82M142.91,630.88c3,8.9,6.32,17.66,9.94,26.26,15.46-.09,31.85-.19,48.48-.29.37,0,23.54-22.39,35.83-34.1,30.46-31.41,1.43-1.36,39.44-41.49h11.11c20.55-25.58,41.09-51.14,61.63-76.71-19.07-20.42-42.26-35.36-70.37-43.73l-12.69,4.01-51.47,109.91-26.16,11.83c-18.62,8.41-17.76,3.73-11.77,22.44,2.28,7.15,4.57,14.3,6.86,21.44l-40.84.44ZM772.5,240.41c-68.84-68.84-163.95-111.42-268.99-111.42s-200.15,42.58-268.99,111.42c-68.84,68.84-111.42,163.94-111.42,268.99,0,22.24,1.92,44.03,5.58,65.22,7.79-.43,6.09-.27,22.33-.16,33.14-42.18,66.28-84.36,99.41-126.53,10.54-2.76,21.09-5.52,31.63-8.29,29.87,12.24,56.5,28.63,79.33,49.91,10.34-12.87,20.67-25.73,31.01-38.6,28.03-7.09,55.05-18.26,80.58-35.4,52.95-62.46,68.37-86.74,105.44-168.7,19.08,5.52,38.16,11.05,57.24,16.57,66.9,78.33,94.26,114.85,143.09,194.3,4.52-6.78,9.04-13.56,13.55-20.34,9.79,5.03,19.59,10.04,29.37,15.07,12.49,24.87,22.65,50.44,30.12,76.81l29.26,26.92c1.88-15.33,2.86-30.95,2.86-46.8,0-105.05-42.58-200.15-111.41-268.99M503.5,93.41c114.87,0,218.87,46.56,294.14,121.84,75.28,75.28,121.84,179.28,121.84,294.14s-46.56,218.87-121.84,294.15c-75.28,75.28-179.27,121.84-294.14,121.84s-218.86-46.57-294.14-121.84c-75.28-75.28-121.84-179.28-121.84-294.15s46.56-218.87,121.84-294.14c75.28-75.28,179.27-121.84,294.14-121.84M355.41,263.05c32.44,0,58.74,26.31,58.74,58.75s-26.3,58.74-58.74,58.74-58.75-26.3-58.75-58.74,26.3-58.75,58.75-58.75M842.32,546.48c-6.76-24.56-18.13-59.61-29.91-83.66-4.02-2.26-8.03-4.52-12.05-6.78-3.51,18.08-8.99,39.83-12.5,57.91,16.31,8.53,38.9,20.99,54.47,32.53M954,582.75c-35.09,217.18-223.41,383.05-450.5,383.05S88.1,799.94,53,582.75h16.04c34.93,208.41,216.14,367.23,434.46,367.23s399.53-158.82,434.46-367.23h16.04Z"/>
  </g>
</svg>